<svg width="60" height="60" fill="none" xmlns="http://www.w3.org/2000/svg"><path d="M0 30C0 13.431 13.431 0 30 0c16.569 0 30 13.431 30 30 0 16.569-13.431 30-30 30C13.431 60 0 46.569 0 30Z" fill="#EFF6F1"/><path fill-rule="evenodd" clip-rule="evenodd" d="M39.283 30.284c0-5.127-4.317-9.284-9.642-9.284C24.317 21 20 25.157 20 30.284c0 4.634 3.525 8.475 8.135 9.172V32.97h-2.449v-2.685h2.449V28.24c0-2.327 1.44-3.613 3.642-3.613 1.055 0 2.158.182 2.158.182v2.285H32.72c-1.197 0-1.572.715-1.572 1.45v1.741h2.674l-.427 2.685h-2.246v6.488c4.61-.697 8.135-4.538 8.135-9.173Z" fill="#274C5B"/></svg>