<svg width="39" height="56" fill="none" xmlns="http://www.w3.org/2000/svg"><path d="M1.85 41.926h34.881M5.791 48.358h27M18.791 1.358v14M18.866 14.642v26.432M29.925 4.41l-11.06 11.085M34.179 8.674 18.866 24.02M36.731 15.495 18.866 32.547M37.582 23.169 18.866 41.925M37.582 31.695 27.373 41.926M1 31.695l10.209 10.231M8.657 4.41l10.209 11.085M4.403 8.674 18.866 24.02M1.85 14.642l17.016 17.905M1 22.316l17.866 18.758M19.291 54.716C9.191 54.716 1 46.263 1 35.836V19.88C1 9.454 9.19 1 19.291 1c10.103 0 18.291 8.454 18.291 18.88v15.955c.002 10.428-8.188 18.88-18.291 18.88Z" stroke="#7EB693" stroke-width="2" stroke-miterlimit="10"/></svg>