<svg width="60" height="60" fill="none" xmlns="http://www.w3.org/2000/svg"><path d="M0 30C0 13.431 13.431 0 30 0c16.569 0 30 13.431 30 30 0 16.569-13.431 30-30 30C13.431 60 0 46.569 0 30Z" fill="#EFF6F1"/><path d="M33.658 22.547a4.109 4.109 0 0 1 2.838 1.137 3.81 3.81 0 0 1 1.18 2.732v7.737a3.81 3.81 0 0 1-1.18 2.732 4.109 4.109 0 0 1-2.838 1.136h-8.034a4.11 4.11 0 0 1-2.837-1.136 3.809 3.809 0 0 1-1.18-2.732v-7.737a3.809 3.809 0 0 1 1.18-2.732 4.109 4.109 0 0 1 2.837-1.137h8.034Zm0-1.547h-8.034C22.531 21 20 23.437 20 26.416v7.737c0 2.979 2.53 5.416 5.624 5.416h8.034c3.094 0 5.625-2.438 5.625-5.416v-7.737c0-2.979-2.531-5.416-5.625-5.416Z" fill="#274C5B"/><path d="M34.863 26.417c-.238 0-.471-.068-.67-.196a1.172 1.172 0 0 1-.443-.52 1.121 1.121 0 0 1-.069-.671c.047-.225.162-.432.33-.594a1.22 1.22 0 0 1 .617-.318c.234-.045.476-.022.697.066.22.088.408.237.54.427a1.13 1.13 0 0 1-.149 1.467 1.244 1.244 0 0 1-.853.34Zm-5.222.773c.636 0 1.257.182 1.786.522.528.34.94.823 1.183 1.389.244.565.307 1.188.183 1.788-.124.6-.43 1.152-.88 1.585a3.254 3.254 0 0 1-1.645.847 3.33 3.33 0 0 1-1.857-.176 3.192 3.192 0 0 1-1.442-1.14 3.015 3.015 0 0 1-.542-1.72c.001-.82.34-1.607.942-2.187a3.281 3.281 0 0 1 2.272-.908Zm0-1.547c-.953 0-1.885.272-2.678.782a4.684 4.684 0 0 0-1.776 2.084 4.483 4.483 0 0 0-.274 2.682c.186.9.645 1.727 1.32 2.377a4.88 4.88 0 0 0 2.468 1.27c.935.18 1.904.087 2.785-.264a4.786 4.786 0 0 0 2.163-1.71 4.52 4.52 0 0 0 .813-2.579 4.557 4.557 0 0 0-1.412-3.282 4.916 4.916 0 0 0-3.409-1.36Z" fill="#274C5B"/></svg>