<svg width="85" height="19" fill="none" xmlns="http://www.w3.org/2000/svg"><path d="M8.83 2.781c.307-.903 1.585-.903 1.893 0l.983 2.89a1 1 0 0 0 .947.678h3.08c.98 0 1.375 1.263.57 1.821l-2.41 1.672a1 1 0 0 0-.378 1.144l.94 2.76c.31.913-.724 1.694-1.517 1.144l-2.592-1.798a1 1 0 0 0-1.14 0L6.614 14.89c-.793.55-1.828-.23-1.517-1.144l.94-2.76a1 1 0 0 0-.377-1.144L3.25 8.17c-.806-.558-.41-1.821.569-1.821h3.08a1 1 0 0 0 .947-.678l.983-2.89ZM25.012 2.927c.3-.921 1.603-.921 1.902 0l.887 2.73a1 1 0 0 0 .951.691h2.871c.969 0 1.372 1.24.588 1.81l-2.323 1.687a1 1 0 0 0-.363 1.118l.887 2.73c.3.921-.755 1.688-1.539 1.118l-2.322-1.687a1 1 0 0 0-1.176 0l-2.322 1.687c-.784.57-1.838-.197-1.539-1.118l.887-2.73a1 1 0 0 0-.363-1.118l-2.323-1.688c-.783-.57-.38-1.809.588-1.809h2.87a1 1 0 0 0 .952-.69l.887-2.73ZM41.203 2.781c.308-.903 1.586-.903 1.894 0l.983 2.89a1 1 0 0 0 .947.678h3.08c.98 0 1.375 1.263.57 1.821l-2.41 1.672a1 1 0 0 0-.377 1.144l.939 2.76c.31.913-.724 1.694-1.517 1.144l-2.592-1.798a1 1 0 0 0-1.14 0l-2.592 1.798c-.793.55-1.828-.23-1.517-1.144l.94-2.76a1 1 0 0 0-.377-1.144l-2.41-1.672c-.806-.558-.41-1.821.57-1.821h3.08a1 1 0 0 0 .946-.678l.983-2.89ZM57.386 2.927c.3-.921 1.603-.921 1.902 0l.887 2.73a1 1 0 0 0 .951.691h2.871c.969 0 1.372 1.24.588 1.81l-2.323 1.687a1 1 0 0 0-.363 1.118l.887 2.73c.3.921-.755 1.688-1.539 1.118l-2.322-1.687a1 1 0 0 0-1.176 0l-2.322 1.687c-.784.57-1.838-.197-1.539-1.118l.887-2.73a1 1 0 0 0-.363-1.118l-2.323-1.688c-.783-.57-.38-1.809.588-1.809h2.87a1 1 0 0 0 .952-.69l.887-2.73ZM73.578 2.781c.307-.903 1.585-.903 1.893 0l.983 2.89a1 1 0 0 0 .947.678h3.08c.98 0 1.375 1.263.57 1.821l-2.41 1.672a1 1 0 0 0-.377 1.144l.94 2.76c.31.913-.725 1.694-1.517 1.144l-2.593-1.798a1 1 0 0 0-1.14 0l-2.592 1.798c-.793.55-1.828-.23-1.517-1.144l.94-2.76a1 1 0 0 0-.377-1.144l-2.41-1.672c-.806-.558-.41-1.821.57-1.821h3.08a1 1 0 0 0 .946-.678l.984-2.89Z" fill="#FFA858"/></svg>