<svg width="60" height="60" fill="none" xmlns="http://www.w3.org/2000/svg"><path d="M0 30C0 13.431 13.431 0 30 0c16.569 0 30 13.431 30 30 0 16.569-13.431 30-30 30C13.431 60 0 46.569 0 30Z" fill="#EFF6F1"/><g clip-path="url(#a)"><path d="M40.66 23.958a8.686 8.686 0 0 1-2.434.659 4.197 4.197 0 0 0 1.865-2.307 8.51 8.51 0 0 1-2.693 1.011A4.265 4.265 0 0 0 34.303 22c-2.342 0-4.238 1.868-4.238 4.17-.001.321.035.64.11.952a12.082 12.082 0 0 1-8.738-4.36 4.119 4.119 0 0 0-.576 2.096 4.16 4.16 0 0 0 1.894 3.473 4.197 4.197 0 0 1-1.928-.52v.051c0 2.023 1.464 3.706 3.4 4.09-.364.096-.739.146-1.116.146-.267 0-.534-.026-.797-.078.539 1.657 2.106 2.862 3.962 2.897A8.591 8.591 0 0 1 20 36.643a11.995 11.995 0 0 0 6.488 1.885c7.806 0 12.07-6.357 12.07-11.87 0-.182-.004-.362-.013-.539a8.542 8.542 0 0 0 2.115-2.16Z" fill="#274C5B"/></g><defs><clipPath id="a"><path fill="#fff" transform="translate(20 22)" d="M0 0h21v17H0z"/></clipPath></defs></svg>