<svg width="123" height="27" fill="none" xmlns="http://www.w3.org/2000/svg"><path d="M13.064 3.033c.308-.904 1.586-.904 1.893 0l1.969 5.782a1 1 0 0 0 .946.678h6.267c.98 0 1.375 1.263.57 1.822l-4.989 3.46a1 1 0 0 0-.377 1.143l1.925 5.654c.31.913-.724 1.693-1.517 1.143l-5.17-3.585a1 1 0 0 0-1.14 0l-5.17 3.585c-.793.55-1.828-.23-1.517-1.143l1.924-5.653a1 1 0 0 0-.377-1.144l-4.989-3.46c-.805-.559-.41-1.822.57-1.822h6.267a1 1 0 0 0 .947-.678l1.968-5.782ZM36.623 3.179c.3-.922 1.603-.922 1.902 0l1.827 5.623a1 1 0 0 0 .951.691h5.913c.969 0 1.371 1.24.588 1.81l-4.784 3.474a1 1 0 0 0-.363 1.119l1.827 5.623c.3.921-.755 1.687-1.539 1.118l-4.783-3.476a1 1 0 0 0-1.176 0l-4.783 3.476c-.784.57-1.838-.197-1.539-1.118l1.827-5.623a1 1 0 0 0-.363-1.119l-4.783-3.475c-.784-.57-.381-1.809.588-1.809h5.912a1 1 0 0 0 .951-.691l1.827-5.623ZM60.191 3.033c.308-.904 1.586-.904 1.893 0l1.969 5.782a1 1 0 0 0 .946.678h6.267c.98 0 1.375 1.263.57 1.822l-4.989 3.46a1 1 0 0 0-.376 1.143l1.924 5.654c.31.913-.724 1.693-1.517 1.143l-5.17-3.585a1 1 0 0 0-1.14 0l-5.17 3.585c-.793.55-1.828-.23-1.517-1.143l1.924-5.653a1 1 0 0 0-.377-1.144l-4.989-3.46c-.805-.559-.41-1.822.57-1.822h6.267a1 1 0 0 0 .947-.678l1.968-5.782ZM83.75 3.179c.3-.922 1.603-.922 1.902 0l1.827 5.623a1 1 0 0 0 .951.691h5.913c.969 0 1.371 1.24.588 1.81l-4.784 3.474a1 1 0 0 0-.363 1.119l1.827 5.623c.3.921-.755 1.687-1.539 1.118L85.29 19.16a1 1 0 0 0-1.176 0l-4.783 3.476c-.784.57-1.838-.197-1.539-1.118l1.827-5.623a1 1 0 0 0-.363-1.119l-4.783-3.475c-.784-.57-.381-1.809.588-1.809h5.912a1 1 0 0 0 .951-.691l1.827-5.623ZM107.318 3.033c.308-.904 1.586-.904 1.893 0l1.969 5.782a.998.998 0 0 0 .946.678h6.267c.98 0 1.375 1.263.57 1.822l-4.989 3.46c-.367.254-.52.72-.377 1.143l1.925 5.654c.31.913-.724 1.693-1.517 1.143l-5.17-3.585a1 1 0 0 0-1.14 0l-5.171 3.585c-.792.55-1.827-.23-1.516-1.143l1.924-5.653a1 1 0 0 0-.377-1.144l-4.989-3.46c-.805-.559-.41-1.822.57-1.822h6.267a1 1 0 0 0 .947-.678l1.968-5.782Z" fill="#FFA858"/></svg>